<svg width="512" height="512" viewBox="0 0 512 512" fill="none" xmlns="http://www.w3.org/2000/svg">
  <!-- Background Circle with Modern Gradient -->
  <circle cx="256" cy="256" r="240" fill="url(#bgGradient)"/>
  
  <!-- Gradient Definitions -->
  <defs>
    <linearGradient id="bgGradient" x1="256" y1="16" x2="256" y2="496" gradientUnits="userSpaceOnUse">
      <stop offset="0%" stop-color="#1E3A8A"/>
      <stop offset="100%" stop-color="#3B82F6"/>
    </linearGradient>
  </defs>
  
  <!-- Circular Arrow forming "C" with "E" negative space -->
  <g transform="translate(256, 256)">
    
    <!-- Main circular ring (forms the "C") -->
    <path d="M 0,-120
             A 120,120 0 0,1 84.85,-84.85
             L 60,-60
             A 85,85 0 0,0 0,-85
             A 85,85 0 0,0 -60,-60
             A 85,85 0 0,0 -85,0
             A 85,85 0 0,0 -60,60
             A 85,85 0 0,0 0,85
             A 85,85 0 0,0 60,60
             L 84.85,84.85
             A 120,120 0 0,1 0,120
             A 120,120 0 0,1 -84.85,84.85
             A 120,120 0 0,1 -120,0
             A 120,120 0 0,1 -84.85,-84.85
             A 120,120 0 0,1 0,-120
             Z
             M 0,-50
             A 50,50 0 0,1 35.36,-35.36
             A 50,50 0 0,1 50,0
             A 50,50 0 0,1 35.36,35.36
             A 50,50 0 0,1 0,50
             A 50,50 0 0,1 -35.36,35.36
             A 50,50 0 0,1 -50,0
             A 50,50 0 0,1 -35.36,-35.36
             A 50,50 0 0,1 0,-50
             Z" 
          fill="#FFFFFF" 
          fill-rule="evenodd"/>
    
    <!-- Three horizontal bars (creates "E" in contrast color) -->
    <!-- Top bar -->
    <rect x="50" y="-72" width="35" height="24" rx="3" fill="#10B981"/>
    
    <!-- Middle bar -->
    <rect x="50" y="-12" width="35" height="24" rx="3" fill="#10B981"/>
    
    <!-- Bottom bar -->
    <rect x="50" y="48" width="35" height="24" rx="3" fill="#10B981"/>
    
    <!-- Arrow head pointing clockwise (showing reduction cycle) -->
    <g transform="rotate(-40, 84.85, -84.85)">
      <path d="M 84.85,-84.85
               L 74.85,-94.85
               L 94.85,-94.85
               Z" 
            fill="#FFFFFF"/>
    </g>
    
  </g>
  
  <!-- Subtle Outer Ring -->
  <circle cx="256" cy="256" r="240" fill="none" 
          stroke="rgba(255,255,255,0.3)" 
          stroke-width="3"/>
</svg>
