<svg width="512" height="512" viewBox="0 0 512 512" fill="none" xmlns="http://www.w3.org/2000/svg">
  <!-- Background Circle -->
  <circle cx="256" cy="256" r="240" fill="url(#gradientBg)"/>
  
  <!-- Gradient Definitions -->
  <defs>
    <linearGradient id="gradientBg" x1="256" y1="16" x2="256" y2="496" gradientUnits="userSpaceOnUse">
      <stop offset="0%" stop-color="#4CAF50"/>
      <stop offset="100%" stop-color="#388E3C"/>
    </linearGradient>
    <linearGradient id="gradientLeaf" x1="256" y1="120" x2="256" y2="392" gradientUnits="userSpaceOnUse">
      <stop offset="0%" stop-color="#FFFFFF" stop-opacity="0.95"/>
      <stop offset="100%" stop-color="#E8F5E9" stop-opacity="0.9"/>
    </linearGradient>
  </defs>
  
  <!-- Main Leaf Shape - Clear and Recognizable -->
  <g transform="translate(256, 256)">
    <!-- Leaf body with clean curves -->
    <path d="M 0 -120 
             Q 40 -100, 60 -60 
             Q 80 -20, 80 20 
             Q 80 60, 60 90 
             Q 40 110, 10 125 
             Q 0 130, -10 125 
             Q -40 110, -60 90 
             Q -80 60, -80 20 
             Q -80 -20, -60 -60 
             Q -40 -100, 0 -120 Z" 
          fill="url(#gradientLeaf)" 
          stroke="white" 
          stroke-width="6" 
          stroke-linejoin="round"/>
    
    <!-- Central vein with data tracking nodes -->
    <line x1="0" y1="-110" x2="0" y2="115" 
          stroke="white" 
          stroke-width="8" 
          stroke-linecap="round" 
          opacity="0.7"/>
    
    <!-- Branch veins -->
    <line x1="0" y1="-60" x2="-40" y2="-30" 
          stroke="white" 
          stroke-width="5" 
          stroke-linecap="round" 
          opacity="0.6"/>
    <line x1="0" y1="-60" x2="40" y2="-30" 
          stroke="white" 
          stroke-width="5" 
          stroke-linecap="round" 
          opacity="0.6"/>
    
    <line x1="0" y1="0" x2="-50" y2="20" 
          stroke="white" 
          stroke-width="5" 
          stroke-linecap="round" 
          opacity="0.6"/>
    <line x1="0" y1="0" x2="50" y2="20" 
          stroke="white" 
          stroke-width="5" 
          stroke-linecap="round" 
          opacity="0.6"/>
    
    <line x1="0" y1="50" x2="-35" y2="65" 
          stroke="white" 
          stroke-width="5" 
          stroke-linecap="round" 
          opacity="0.6"/>
    <line x1="0" y1="50" x2="35" y2="65" 
          stroke="white" 
          stroke-width="5" 
          stroke-linecap="round" 
          opacity="0.6"/>
    
    <!-- Tech tracking nodes (data points) -->
    <circle cx="0" cy="-60" r="10" fill="#2196F3" stroke="white" stroke-width="3"/>
    <circle cx="0" cy="0" r="10" fill="#2196F3" stroke="white" stroke-width="3"/>
    <circle cx="0" cy="50" r="10" fill="#2196F3" stroke="white" stroke-width="3"/>
    
    <!-- Smaller data points on branches -->
    <circle cx="-40" cy="-30" r="6" fill="#64B5F6" stroke="white" stroke-width="2"/>
    <circle cx="40" cy="-30" r="6" fill="#64B5F6" stroke="white" stroke-width="2"/>
    <circle cx="-50" cy="20" r="6" fill="#64B5F6" stroke="white" stroke-width="2"/>
    <circle cx="50" cy="20" r="6" fill="#64B5F6" stroke="white" stroke-width="2"/>
  </g>
  
  <!-- Subtle outer ring -->
  <circle cx="256" cy="256" r="240" fill="none" stroke="white" stroke-width="4" opacity="0.2"/>
</svg>

