<svg width="512" height="512" viewBox="0 0 512 512" fill="none" xmlns="http://www.w3.org/2000/svg">
  <!-- Background Circle with Gradient -->
  <circle cx="256" cy="256" r="240" fill="url(#bgGradient)"/>
  
  <!-- Gradient Definitions -->
  <defs>
    <linearGradient id="bgGradient" x1="256" y1="16" x2="256" y2="496" gradientUnits="userSpaceOnUse">
      <stop offset="0%" stop-color="#66BB6A"/>
      <stop offset="50%" stop-color="#4CAF50"/>
      <stop offset="100%" stop-color="#388E3C"/>
    </linearGradient>
    <linearGradient id="leafGradient" x1="256" y1="140" x2="256" y2="380" gradientUnits="userSpaceOnUse">
      <stop offset="0%" stop-color="#FFFFFF"/>
      <stop offset="100%" stop-color="#E8F5E9"/>
    </linearGradient>
  </defs>
  
  <!-- Simple Leaf Shape -->
  <g transform="translate(256, 256)">
    <!-- Main Leaf Body - Clean and Simple -->
    <path d="M 0,-120 
             C 30,-110 50,-85 62,-55
             C 72,-30 78,0 78,30
             C 78,60 72,88 60,110
             C 48,130 28,142 0,148
             C -28,142 -48,130 -60,110
             C -72,88 -78,60 -78,30
             C -78,0 -72,-30 -62,-55
             C -50,-85 -30,-110 0,-120 Z" 
          fill="url(#leafGradient)" 
          stroke="rgba(255,255,255,0.9)" 
          stroke-width="5" 
          stroke-linejoin="round"/>
    
    <!-- Central Vein -->
    <line x1="0" y1="-110" x2="0" y2="138" 
          stroke="rgba(255,255,255,0.85)" 
          stroke-width="6" 
          stroke-linecap="round"/>
    
    <!-- Side Veins - Natural Leaf Pattern -->
    <g stroke="rgba(255,255,255,0.6)" stroke-width="3.5" stroke-linecap="round">
      <!-- Upper veins -->
      <line x1="0" y1="-70" x2="-42" y2="-40"/>
      <line x1="0" y1="-70" x2="42" y2="-40"/>
      
      <!-- Middle-upper veins -->
      <line x1="0" y1="-30" x2="-52" y2="-5"/>
      <line x1="0" y1="-30" x2="52" y2="-5"/>
      
      <!-- Middle veins -->
      <line x1="0" y1="10" x2="-58" y2="35"/>
      <line x1="0" y1="10" x2="58" y2="35"/>
      
      <!-- Middle-lower veins -->
      <line x1="0" y1="50" x2="-52" y2="75"/>
      <line x1="0" y1="50" x2="52" y2="75"/>
      
      <!-- Lower veins -->
      <line x1="0" y1="90" x2="-40" y2="110"/>
      <line x1="0" y1="90" x2="40" y2="110"/>
    </g>
  </g>
  
  <!-- Subtle Outer Ring -->
  <circle cx="256" cy="256" r="240" fill="none" 
          stroke="rgba(255,255,255,0.25)" 
          stroke-width="3"/>
</svg>
