<svg width="512" height="512" viewBox="0 0 512 512" fill="none" xmlns="http://www.w3.org/2000/svg">
  <!-- Background Circle -->
  <circle cx="256" cy="256" r="240" fill="url(#gradientBg2)"/>
  
  <!-- Gradient Definitions -->
  <defs>
    <linearGradient id="gradientBg2" x1="256" y1="16" x2="256" y2="496" gradientUnits="userSpaceOnUse">
      <stop offset="0%" stop-color="#4CAF50"/>
      <stop offset="100%" stop-color="#388E3C"/>
    </linearGradient>
    <linearGradient id="gradientFootprint" x1="256" y1="160" x2="256" y2="380" gradientUnits="userSpaceOnUse">
      <stop offset="0%" stop-color="#FFFFFF" stop-opacity="0.95"/>
      <stop offset="100%" stop-color="#E8F5E9" stop-opacity="0.9"/>
    </linearGradient>
  </defs>
  
  <g transform="translate(256, 270)">
    <!-- Footprint Shape (combining foot with plant growth) -->
    
    <!-- Heel of foot -->
    <ellipse cx="0" cy="50" rx="45" ry="35" 
             fill="url(#gradientFootprint)" 
             stroke="white" 
             stroke-width="6"/>
    
    <!-- Ball of foot -->
    <ellipse cx="0" cy="-15" rx="55" ry="40" 
             fill="url(#gradientFootprint)" 
             stroke="white" 
             stroke-width="6"/>
    
    <!-- Toes -->
    <ellipse cx="-35" cy="-50" rx="15" ry="18" 
             fill="url(#gradientFootprint)" 
             stroke="white" 
             stroke-width="5"/>
    <ellipse cx="-12" cy="-58" rx="15" ry="20" 
             fill="url(#gradientFootprint)" 
             stroke="white" 
             stroke-width="5"/>
    <ellipse cx="12" cy="-60" rx="15" ry="22" 
             fill="url(#gradientFootprint)" 
             stroke="white" 
             stroke-width="5"/>
    <ellipse cx="35" cy="-56" rx="14" ry="19" 
             fill="url(#gradientFootprint)" 
             stroke="white" 
             stroke-width="5"/>
    
    <!-- Plant sprout growing from footprint (eco element) -->
    <g transform="translate(0, -10)">
      <!-- Stem -->
      <path d="M 0 0 Q -5 -30, 0 -60 Q 5 -90, 0 -100" 
            stroke="#81C784" 
            stroke-width="6" 
            stroke-linecap="round" 
            fill="none"/>
      
      <!-- Left leaf -->
      <path d="M 0 -70 Q -25 -75, -35 -65 Q -30 -55, 0 -70" 
            fill="#66BB6A" 
            stroke="#4CAF50" 
            stroke-width="2"/>
      
      <!-- Right leaf -->
      <path d="M 0 -50 Q 25 -55, 35 -45 Q 30 -35, 0 -50" 
            fill="#66BB6A" 
            stroke="#4CAF50" 
            stroke-width="2"/>
      
      <!-- Small leaves at bottom -->
      <path d="M 0 -30 Q -15 -32, -20 -25 Q -15 -22, 0 -30" 
            fill="#81C784" 
            stroke="#66BB6A" 
            stroke-width="2"/>
      <path d="M 0 -20 Q 15 -22, 20 -15 Q 15 -12, 0 -20" 
            fill="#81C784" 
            stroke="#66BB6A" 
            stroke-width="2"/>
    </g>
    
    <!-- Data tracking dots on footprint -->
    <circle cx="-25" cy="0" r="8" fill="#2196F3" stroke="white" stroke-width="2"/>
    <circle cx="20" cy="-5" r="8" fill="#2196F3" stroke="white" stroke-width="2"/>
    <circle cx="0" cy="40" r="8" fill="#2196F3" stroke="white" stroke-width="2"/>
    
    <!-- Connection lines between data points -->
    <line x1="-25" y1="0" x2="20" y2="-5" 
          stroke="#64B5F6" 
          stroke-width="3" 
          opacity="0.5"/>
    <line x1="20" y1="-5" x2="0" y2="40" 
          stroke="#64B5F6" 
          stroke-width="3" 
          opacity="0.5"/>
  </g>
  
  <!-- Outer ring -->
  <circle cx="256" cy="256" r="240" fill="none" stroke="white" stroke-width="4" opacity="0.2"/>
</svg>

